<svg xmlns="http://www.w3.org/2000/svg" style="isolation:isolate" viewBox="0 0 256 256" width="256" height="256">
  <path d=" M 48 0 L 208 0 C 234.492 0 256 21.508 256 48 L 256 208 C 256 234.492 234.492 256 208 256 L 48 256 C 21.508 256 0 234.492 0 208 L 0 48 C 0 21.508 21.508 0 48 0 Z " fill="rgb(39,39,39)"/>
  <path d=" M 100.387 207.602 C 100.166 207.551 99.999 207.161 100 206.699 L 100.051 198.36 C 100.051 198.182 100.086 198.009 100.147 197.883 L 127.794 140.179 C 127.849 140.066 127.923 140 128 140 C 128.077 140 128.151 140.066 128.205 140.179 L 155.815 197.805 Q 155.938 198.061 155.942 198.425 L 156 206.349 Q 156.011 207.787 155.319 207.794 C 137.943 208.115 120.544 207.98 103.168 207.923 Q 101.737 207.915 100.387 207.602 L 100.387 207.602 Z " fill-rule="evenodd" fill="rgb(255,255,255)"/>
  <path d=" M 128 106.947 L 176.762 208 L 224 208 L 224 179.579 L 160.508 48 L 160.508 48 L 156.444 48 L 99.556 48 L 95.492 48 L 95.492 48 L 32 179.579 L 32 208 L 79.238 208 L 128 106.947 Z " fill="rgb(255,202,0)"/>
</svg>
