<svg xmlns="http://www.w3.org/2000/svg" style="isolation:isolate" viewBox="0 0 128 128" width="32" height="32">
  <path class="icon-path path-rpg" fill="rgb(39,39,39)" d=" M 34.574 55.044 L 11.265 89.144 C 10.585 90.238 11.287 91.66 12.575 91.8 L 58.565 96.628 L 34.574 55.044 L 34.574 55.044 Z  M 12.636 76.999 L 29.263 50.236 L 12.338 40.178 C 11.749 39.828 11 40.248 11 40.928 L 11 76.542 C 11 77.424 12.168 77.752 12.636 76.999 Z  M 15.03 100.661 L 57.96 119.837 C 59.13 120.373 60.466 119.524 60.466 118.249 L 60.466 103.883 L 15.516 99.005 C 14.533 98.896 14.14 100.228 15.03 100.661 L 15.03 100.661 Z  M 32.966 44.273 L 50.617 13.005 C 51.575 11.461 49.824 9.669 48.236 10.568 L 14.933 32.139 C 14.388 32.493 14.405 33.289 14.962 33.622 L 32.966 44.273 L 32.966 44.273 Z  M 63.999 46.5 L 88.116 46.5 L 67.009 9.667 C 66.318 8.556 65.159 8 63.999 8 C 62.84 8 61.681 8.556 60.989 9.667 L 39.882 46.5 L 63.999 46.5 Z  M 115.66 40.178 L 98.736 50.238 L 115.362 77.002 C 115.828 77.754 116.998 77.426 116.998 76.542 L 116.998 40.928 C 116.998 40.248 116.25 39.828 115.66 40.178 L 115.66 40.178 Z  M 95.032 44.273 L 113.037 33.62 C 113.595 33.287 113.611 32.491 113.065 32.137 L 79.762 10.568 C 78.174 9.669 76.423 11.461 77.382 13.005 L 95.032 44.273 Z  M 112.482 99.005 L 67.533 103.881 L 67.533 118.246 C 67.533 119.524 68.869 120.37 70.039 119.834 L 112.968 100.659 C 113.858 100.228 113.465 98.896 112.482 99.005 L 112.482 99.005 Z  M 93.425 55.044 L 69.436 96.628 L 115.426 91.8 C 116.714 91.658 117.416 90.238 116.736 89.144 L 93.425 55.044 L 93.425 55.044 Z  M 63.999 53.499 L 41.821 53.499 L 63.999 91.944 L 86.177 53.499 L 63.999 53.499 Z "/>
</svg>
