<svg xmlns="http://www.w3.org/2000/svg" style="isolation:isolate" viewBox="0 0 128 128" width="32" height="32">
  <path class="icon-star path-star" fill="rgb(39,39,39)" d=" M 64.002 98.38 L 34.114 116.399 C 32.686 117.263 30.874 117.19 29.52 116.214 C 28.166 115.241 27.534 113.556 27.918 111.942 L 35.974 78.188 L 9.442 55.577 C 8.174 54.497 7.686 52.766 8.204 51.188 C 8.72 49.611 10.144 48.495 11.81 48.36 L 46.678 45.525 L 60.174 13.526 C 60.82 11.995 62.33 11 64.002 11 C 65.676 11 67.186 11.995 67.83 13.526 L 81.328 45.525 L 116.193 48.36 C 117.859 48.497 119.281 49.613 119.797 51.19 C 120.313 52.768 119.823 54.497 118.555 55.577 L 92.032 78.188 L 100.086 111.942 C 100.47 113.556 99.84 115.241 98.486 116.214 C 97.132 117.19 95.32 117.263 93.89 116.399 L 64.002 98.38 Z "/>
</svg>
