<svg xmlns="http://www.w3.org/2000/svg" style="isolation:isolate" viewBox="0 0 128 128" width="32" height="32">
  <path class="icon-path path-hq" fill="rgb(39,39,39)" d=" M 77.642 52.282 C 77.642 54.732 75.546 56.706 72.953 56.706 L 12.696 56.706 C 10.096 56.706 8 54.732 8 52.282 L 8 12.432 C 8 9.98 10.096 8 12.696 8 L 72.953 8 C 75.546 8 77.642 9.98 77.642 12.432 L 77.642 52.282 L 77.642 52.282 Z  M 120 115.332 C 120 117.914 117.89 120 115.296 120 L 54.921 120 C 52.32 120 50.218 117.914 50.218 115.332 L 50.218 68.662 C 50.218 66.086 52.32 64 54.921 64 L 115.296 64 C 117.89 64 120 66.086 120 68.662 L 120 115.332 L 120 115.332 Z  M 42.741 115.332 C 42.741 117.914 40.638 120 38.059 120 L 12.71 120 C 10.102 120 8.008 117.914 8.008 115.332 L 8.008 68.662 C 8.008 66.086 10.102 64 12.71 64 L 38.059 64 C 40.638 64 42.741 66.086 42.741 68.662 L 42.741 115.332 L 42.741 115.332 Z  M 120 52.414 C 120 54.872 117.729 56.854 114.912 56.854 L 90.187 56.854 C 87.398 56.854 85.119 54.872 85.119 52.414 L 85.119 12.444 C 85.119 9.98 87.39 8 90.187 8 L 114.912 8 C 117.721 8 120 9.98 120 12.444 L 120 52.414 L 120 52.414 Z " fill-rule="evenodd"/>
</svg>
