<svg xmlns="http://www.w3.org/2000/svg" style="isolation:isolate" viewBox="0 0 128 128" width="32" height="32">
  <path class="icon-source path-game" fill="rgb(39,39,39)" d=" M 105.138 34.377 C 100.954 27.459 93.284 24 84.918 24 L 43.082 24 C 34.716 24 27.046 27.459 22.862 34.377 C 6.826 58.59 3.34 95.256 14.496 102.867 C 25.652 110.477 50.752 77.27 64 77.27 C 77.248 77.27 101.652 110.477 113.504 102.867 C 124.66 95.256 121.174 58.59 105.138 34.377 Z  M 50.056 58.59 L 43.082 58.59 L 43.082 65.508 L 36.11 65.508 L 36.11 58.59 L 29.138 58.59 L 29.138 51.673 L 36.11 51.673 L 36.11 44.755 L 43.082 44.755 L 43.082 51.673 L 50.056 51.673 L 50.056 58.59 Z  M 87.706 62.049 C 87.706 65.508 84.918 68.276 81.432 68.276 C 77.944 68.276 75.156 65.508 75.156 62.049 C 75.156 58.59 77.944 55.824 81.432 55.824 C 84.918 55.824 87.706 58.59 87.706 62.049 Z  M 100.954 48.214 C 100.954 51.673 98.166 54.439 94.678 54.439 C 91.192 54.439 88.404 51.673 88.404 48.214 C 88.404 44.755 91.192 41.987 94.678 41.987 C 98.166 41.987 100.954 44.755 100.954 48.214 Z "/>
</svg>
