<svg xmlns="http://www.w3.org/2000/svg" style="isolation:isolate" viewBox="0 0 128 128" width="32" height="32">
  <path class="icon-path path-boardgame" fill="rgb(39,39,39)" d=" M 79.594 81.015 C 79.594 76.401 82.094 72.655 85.174 72.655 C 88.254 72.655 90.754 76.401 90.754 81.015 C 90.754 85.63 88.254 89.376 85.174 89.376 C 82.094 89.376 79.594 85.63 79.594 81.015 Z  M 91.28 54.265 C 91.28 50.144 93.504 46.795 96.242 46.795 C 98.98 46.795 101.204 50.144 101.204 54.265 C 101.204 58.387 98.98 61.736 96.242 61.736 C 93.504 61.736 91.28 58.387 91.28 54.265 Z  M 116.066 25.39 L 65.578 10.223 C 65.486 10.199 65.372 10.177 65.28 10.153 C 65.19 10.131 65.074 10.109 64.984 10.085 C 64.32 9.972 63.658 9.972 62.994 10.085 C 62.902 10.109 62.788 10.131 62.696 10.153 C 62.606 10.177 62.49 10.199 62.4 10.223 L 51.126 13.604 L 42.026 16.345 L 16.53 23.998 L 16.53 23.998 L 11.934 25.368 C 9.6 26.075 8 28.223 8 30.645 L 8 97.281 C 8 99.724 9.6 101.848 11.934 102.557 L 62.4 117.77 C 62.926 117.93 63.452 118 64 118 C 64.526 118 65.074 117.93 65.6 117.77 L 116.066 102.603 C 118.4 101.894 120 99.748 120 97.327 L 120 30.667 C 120 28.247 118.4 26.099 116.066 25.39 Z  M 24.052 91.341 C 21.376 91.341 19.182 88.074 19.182 84.054 C 19.182 80.034 21.354 76.767 24.052 76.767 C 26.728 76.767 28.922 80.034 28.922 84.054 C 28.922 88.074 26.728 91.341 24.052 91.341 Z  M 35.554 70.575 C 32.604 70.575 30.204 66.967 30.204 62.535 C 30.204 58.104 32.604 54.493 35.554 54.493 C 38.504 54.493 40.904 58.104 40.904 62.535 C 40.904 66.967 38.526 70.575 35.554 70.575 Z  M 48.68 49.972 C 45.592 49.972 43.1 46.225 43.1 41.61 C 43.1 36.995 45.592 33.248 48.68 33.248 C 51.766 33.248 54.258 36.995 54.258 41.61 C 54.258 46.225 51.766 49.972 48.68 49.972 Z  M 108.956 93.215 L 69.51 105.071 L 69.51 22.925 L 108.956 34.779 L 108.956 93.215 Z " fill-rule="evenodd"/>
</svg>
