<svg xmlns="http://www.w3.org/2000/svg" style="isolation:isolate" viewBox="0 0 128 128" width="32" height="32">
  <path class="icon-path path-cross" fill="rgb(39,39,39)" d=" M 99 36 L 78 36 L 78 15 C 78 11.134 74.866 8 71 8 L 57 8 C 53.134 8 50 11.134 50 15 L 50 36 L 29 36 C 25.134 36 22 39.134 22 43 L 22 57 C 22 60.866 25.134 64 29 64 L 50 64 L 50 113 C 50 116.866 53.134 120 57 120 L 71 120 C 74.866 120 78 116.866 78 113 L 78 64 L 99 64 C 102.866 64 106 60.866 106 57 L 106 43 C 106 39.134 102.866 36 99 36 Z "/>
</svg>
