<svg xmlns="http://www.w3.org/2000/svg" style="isolation:isolate" viewBox="0 0 128 128" width="32" height="32">
  <path class="icon-source path-movie" fill="rgb(39,39,39)" d=" M 83.174 106.934 C 97.688 98.204 107.404 82.244 107.404 64 C 107.404 36.387 85.154 14 57.704 14 C 30.252 14 8 36.387 8 64 C 8 91.613 30.252 114 57.704 114 L 120 114 L 120 106.934 L 83.174 106.934 L 83.174 106.934 Z  M 77.668 39.767 C 82.82 36.775 89.402 38.549 92.376 43.732 C 95.35 48.913 93.586 55.538 88.434 58.53 C 83.284 61.517 76.7 59.743 73.728 54.566 C 70.75 49.379 72.518 42.758 77.668 39.767 Z  M 73.724 73.174 C 76.702 67.992 83.284 66.217 88.436 69.209 C 93.586 72.205 95.35 78.826 92.376 84.008 C 89.402 89.189 82.82 90.964 77.666 87.972 C 72.518 84.98 70.75 78.355 73.724 73.174 Z  M 57.704 23.593 C 63.652 23.593 68.47 28.441 68.47 34.423 C 68.47 40.406 63.652 45.261 57.704 45.261 C 51.756 45.261 46.93 40.406 46.93 34.423 C 46.93 28.441 51.756 23.593 57.704 23.593 Z  M 62.674 64 C 62.674 66.764 60.448 69 57.704 69 C 54.956 69 52.734 66.764 52.734 64 C 52.734 61.236 54.956 59 57.704 59 C 60.448 59 62.674 61.236 62.674 64 Z  M 23.028 43.732 C 26.002 38.549 32.588 36.775 37.74 39.767 C 42.89 42.758 44.654 49.379 41.68 54.566 C 38.708 59.743 32.12 61.521 26.97 58.53 C 21.822 55.538 20.056 48.913 23.028 43.732 Z  M 37.744 87.972 C 32.588 90.964 26.006 89.189 23.028 84.008 C 20.058 78.826 21.822 72.201 26.97 69.205 C 32.12 66.215 38.708 67.992 41.68 73.174 C 44.654 78.355 42.89 84.98 37.744 87.972 Z  M 46.93 93.312 C 46.93 87.328 51.756 82.477 57.704 82.477 C 63.652 82.477 68.47 87.328 68.47 93.312 C 68.47 99.295 63.652 104.146 57.704 104.146 C 51.756 104.146 46.93 99.295 46.93 93.312 Z " fill-rule="evenodd"/>
</svg>
