<?xml version="1.0" encoding="UTF-8" standalone="no"?><!-- Generator: Gravit.io --><svg xmlns="http://www.w3.org/2000/svg" xmlns:xlink="http://www.w3.org/1999/xlink" style="isolation:isolate" viewBox="0 0 640 360" width="640pt" height="360pt"><defs><clipPath id="_clipPath_l2Bawvcebp37Rkma2iNCtVvU2pFMDwNa"><rect width="640" height="360"/></clipPath></defs><g clip-path="url(#_clipPath_l2Bawvcebp37Rkma2iNCtVvU2pFMDwNa)"><rect x="0" y="0" width="640" height="360" transform="matrix(1,0,0,1,0,0)" fill="rgb(39,39,39)"/><path d=" M 80.303 101.57 C 79.359 99.445 80.696 97.723 83.289 97.723 L 201.475 97.723 C 204.068 97.723 206.936 99.445 207.88 101.57 L 221.839 132.989 C 222.782 135.114 221.446 136.837 218.851 136.837 L 100.667 136.837 C 98.073 136.837 95.205 135.114 94.261 132.989 L 80.303 101.57 Z  M 101.613 144.58 C 100.67 142.456 102.007 140.733 104.6 140.733 L 222.785 140.733 C 225.379 140.733 228.247 142.456 229.191 144.58 L 243.15 175.999 C 244.093 178.124 242.757 179.847 240.163 179.847 L 121.978 179.847 C 119.384 179.847 116.516 178.124 115.573 175.999 L 101.613 144.58 Z  M 122.78 187.733 C 121.836 185.608 123.173 183.886 125.767 183.886 L 243.952 183.886 C 246.546 183.886 249.413 185.608 250.357 187.733 L 264.315 219.152 C 265.26 221.278 263.923 223 261.329 223 L 143.143 223 C 140.55 223 137.683 221.278 136.738 219.152 L 122.78 187.733 Z  M 559.697 100.848 C 560.641 98.724 559.304 97 556.711 97 L 438.525 97 C 435.932 97 433.064 98.724 432.121 100.848 L 418.161 132.267 C 417.217 134.392 418.554 136.114 421.149 136.114 L 539.334 136.114 C 541.928 136.114 544.796 134.392 545.739 132.267 L 559.697 100.848 Z  M 538.386 143.859 C 539.331 141.734 537.993 140.012 535.4 140.012 L 417.214 140.012 C 414.621 140.012 411.754 141.734 410.81 143.859 L 396.851 175.278 C 395.906 177.403 397.244 179.125 399.838 179.125 L 518.023 179.125 C 520.616 179.125 523.483 177.403 524.428 175.278 L 538.386 143.859 Z  M 517.221 187.011 C 518.164 184.887 516.828 183.163 514.234 183.163 L 396.049 183.163 C 393.455 183.163 390.588 184.887 389.644 187.011 L 375.684 218.431 C 374.741 220.556 376.077 222.278 378.672 222.278 L 496.856 222.278 C 499.449 222.278 502.317 220.556 503.262 218.431 L 517.221 187.011 Z  M 225.624 97.674 L 306.813 97.674 C 306.813 97.674 310.307 97.289 313.186 102.293 C 316.065 107.296 312.61 112.492 312.61 112.492 L 275.087 188.026 C 275.087 188.026 272.709 194.088 266.506 194.088 C 261.001 194.088 258.1 187.93 258.1 187.93 L 219.674 112.299 C 219.674 112.299 216.215 107.297 218.273 102.004 C 220.48 96.327 225.624 97.674 225.624 97.674 Z  M 333.3 97.962 L 414.489 97.962 C 414.489 97.962 417.983 97.578 420.863 102.582 C 423.741 107.585 420.285 112.781 420.285 112.781 L 382.762 188.315 C 382.762 188.315 380.385 194.376 374.183 194.376 C 368.677 194.376 365.776 188.219 365.776 188.219 L 327.35 112.588 C 327.35 112.588 323.892 107.585 325.95 102.293 C 328.157 96.616 333.3 97.962 333.3 97.962 Z  M 360.742 222.815 L 279.552 222.815 C 279.552 222.815 276.058 223.199 273.18 218.196 C 270.3 213.192 273.755 207.996 273.755 207.996 L 311.278 132.462 C 311.278 132.462 313.657 126.401 319.859 126.401 C 325.365 126.401 328.266 132.558 328.266 132.558 L 366.691 208.189 C 366.691 208.189 370.149 213.192 368.091 218.484 C 365.885 224.161 360.742 222.815 360.742 222.815 Z " fill-rule="evenodd" fill="rgb(0,160,198)"/><path d=" M 144 234.314 L 146.975 234.314 L 154.815 259.12 L 162.5 234.314 L 166.405 234.314 L 173.997 259.237 L 181.93 234.314 L 184.905 234.314 L 175.98 262.687 L 172.075 262.687 L 164.452 237.763 L 156.829 262.687 L 152.925 262.687 L 144 234.314 Z  M 187.539 234.314 L 209.571 234.314 L 209.571 237.449 L 190.576 237.449 L 190.576 246.502 L 208.828 246.502 L 208.828 249.637 L 190.576 249.637 L 190.576 259.551 L 209.696 259.551 L 209.696 262.687 L 187.539 262.687 L 187.539 234.314 Z  M 224.23 250.695 L 211.369 234.314 L 215.46 234.314 L 225.748 247.481 L 236.036 234.314 L 240.126 234.314 L 227.266 250.695 L 227.266 262.687 L 224.23 262.687 L 224.23 250.695 Z  M 243.132 234.314 L 246.169 234.314 L 246.169 259.551 L 263.585 259.551 L 263.585 262.687 L 243.132 262.687 L 243.132 234.314 Z  M 279.017 237.449 L 271.487 253.555 L 286.547 253.555 L 279.017 237.449 Z  M 277.127 234.314 L 280.907 234.314 L 294.232 262.687 L 290.793 262.687 L 288.004 256.69 L 270.03 256.69 L 267.242 262.687 L 263.802 262.687 L 277.127 234.314 Z  M 296.96 234.314 L 301.484 234.314 L 322.029 259.237 L 322.029 234.314 L 325.066 234.314 L 325.066 262.687 L 320.542 262.687 L 299.997 237.763 L 299.997 262.687 L 296.96 262.687 L 296.96 234.314 Z  M 354.784 247.128 C 354.784 238.938 352.77 237.449 349.051 237.449 L 333.154 237.449 L 333.154 259.551 L 348.555 259.551 C 352.244 259.551 354.784 258.533 354.784 250.028 L 354.784 247.128 Z  M 330.118 234.314 L 348.245 234.314 C 355.776 234.314 357.82 237.293 357.82 248.5 C 357.82 258.924 355.776 262.687 348.152 262.687 L 330.118 262.687 L 330.118 234.314 Z  M 376.476 244.62 C 376.476 237.449 378.398 234 384.471 234 L 396.092 234 C 401.609 234 403.126 237.253 403.126 241.055 L 403.126 243.484 L 400.461 243.484 L 400.461 242.19 C 400.461 237.371 398.106 237.135 395.316 237.135 L 384.781 237.135 C 381.868 237.135 379.513 238.233 379.513 243.171 L 379.513 253.83 C 379.513 258.767 381.868 259.865 384.781 259.865 L 395.41 259.865 C 399.5 259.865 400.678 258.767 400.678 254.927 L 400.678 253.164 L 403.528 253.164 L 403.528 255.083 C 403.528 260.218 402.228 263 395.937 263 L 384.471 263 C 378.398 263 376.476 259.551 376.476 252.38 L 376.476 244.62 Z  M 433.186 243.171 C 433.186 238.233 430.83 237.135 427.917 237.135 L 415.615 237.135 C 412.701 237.135 410.347 238.233 410.347 243.171 L 410.347 253.83 C 410.347 258.767 412.701 259.865 415.615 259.865 L 427.917 259.865 C 430.83 259.865 433.186 258.767 433.186 253.83 L 433.186 243.171 Z  M 407.31 244.62 C 407.31 237.449 409.232 234 415.305 234 L 428.227 234 C 434.301 234 436.222 237.449 436.222 244.62 L 436.222 252.38 C 436.222 259.551 434.301 263 428.227 263 L 415.305 263 C 409.232 263 407.31 259.551 407.31 252.38 L 407.31 244.62 Z  M 458.472 248.343 C 461.849 248.343 463.275 247.207 463.275 244.228 L 463.275 241.642 C 463.275 238.468 462.191 237.449 457.728 237.449 L 443.907 237.449 L 443.907 248.343 L 458.472 248.343 Z  M 440.87 234.314 L 458.814 234.314 C 465.289 234.314 466.312 237.018 466.312 242.348 L 466.312 244.659 C 466.312 248.657 464.515 249.754 462.191 250.028 L 462.191 250.107 C 465.289 250.812 466.033 252.85 466.033 255.436 L 466.033 262.687 L 463.182 262.687 L 463.182 256.455 C 463.182 252.027 461.477 251.479 458.72 251.479 L 443.907 251.479 L 443.907 262.687 L 440.87 262.687 L 440.87 234.314 Z  M 492.962 241.642 C 492.962 238.272 491.507 237.449 488.872 237.449 L 474.153 237.449 L 474.153 248.382 L 489.121 248.382 C 491.538 248.382 492.962 247.285 492.962 244.346 L 492.962 241.642 Z  M 471.116 234.314 L 489.585 234.314 C 493.674 234.314 496 235.411 496 242.034 C 496 248.343 495.596 251.518 488.996 251.518 L 474.153 251.518 L 474.153 262.687 L 471.116 262.687 L 471.116 234.314 Z " fill-rule="evenodd" fill="rgb(0,160,198)"/></g></svg>